<svg xmlns="http://www.w3.org/2000/svg" version="1.1" xmlns:xlink="http://www.w3.org/1999/xlink" xmlns:svgjs="http://svgjs.dev/svgjs" width="1440" height="560" preserveAspectRatio="none" viewBox="0 0 1440 560"><g mask="url(&quot;#SvgjsMask2109&quot;)" fill="none"><rect width="1440" height="560" x="0" y="0" fill="url(&quot;#SvgjsLinearGradient2110&quot;)"></rect><path d="M1476.7055959544757 470.2677192863586L1388.243564396085 427.1219036445898 1345.0977487543162 515.5839352029805 1433.5597803127068 558.7297508447493z" fill="rgba(28, 83, 142, 0.4)" class="triangle-float3"></path><path d="M148.892,224.228C171.688,223.159,194.008,215.663,206.455,196.535C220.125,175.528,225.17,148.201,212.398,126.636C199.814,105.388,173.58,98.735,148.892,99.34C125.417,99.915,103.453,109.996,90.556,129.62C76.156,151.532,67.395,180.09,81.157,202.408C94.501,224.049,123.496,225.418,148.892,224.228" fill="rgba(28, 83, 142, 0.4)" class="triangle-float2"></path><path d="M-44.25321913093799 178.77766651793291L81.90192761796004 273.8423882918773 176.9666493919044 147.68724154297925 50.81150264300638 52.62251976903488z" fill="rgba(28, 83, 142, 0.4)" class="triangle-float3"></path><path d="M962.8017514581321 236.34114943325392L803.2844521991457 190.43573170762897 835.9253921130963 331.81917545886506z" fill="rgba(28, 83, 142, 0.4)" class="triangle-float2"></path><path d="M54.08710585325808 588.5273889726104L179.28253937710545 568.6983803027481 159.45353070724317 443.50294677890076 34.258097183395805 463.33195544876304z" fill="rgba(28, 83, 142, 0.4)" class="triangle-float1"></path><path d="M862.7725154258906 238.10348452154915L843.9805339204287 371.81538074911685 977.6924301479963 390.6073622545788 996.4844116534582 256.8954660270111z" fill="rgba(28, 83, 142, 0.4)" class="triangle-float1"></path><path d="M1246.058,564.757C1286.179,564.428,1308.365,523.166,1328.427,488.42C1348.491,453.671,1372.731,414.053,1353.364,378.911C1333.619,343.083,1286.922,337.05,1246.058,338.956C1209.053,340.682,1172.937,355.875,1154.792,388.172C1136.973,419.888,1144.615,457.471,1161.318,489.789C1179.877,525.698,1205.637,565.088,1246.058,564.757" fill="rgba(28, 83, 142, 0.4)" class="triangle-float3"></path><path d="M585.045847021066 391.9895161098533L515.0326097965819 326.70111616868695 519.7574470798996 462.00275333433746z" fill="rgba(28, 83, 142, 0.4)" class="triangle-float2"></path><path d="M79.605,138.065C104.626,136.012,124.484,118.588,136.167,96.367C146.985,75.792,145.57,52.367,135.738,31.302C123.744,5.604,107.962,-24.504,79.605,-24.822C50.997,-25.142,35.427,5.169,21.251,30.02C7.264,54.538,-9.116,82.353,4.298,107.189C18.116,132.774,50.624,140.443,79.605,138.065" fill="rgba(28, 83, 142, 0.4)" class="triangle-float1"></path><path d="M563.5766103759322-4.267376128761015L456.280963475812-94.2991138695796 366.2492257349934 12.996533030540647 473.5448726351136 103.02827077135923z" fill="rgba(28, 83, 142, 0.4)" class="triangle-float2"></path><path d="M1268.298,710.518C1320.392,708.628,1367.868,680.828,1393.357,635.356C1418.293,590.871,1414.668,537.51,1390.426,492.643C1364.788,445.193,1322.229,404.502,1268.298,403.903C1213.534,403.295,1169.148,442.671,1141.382,489.878C1113.149,537.879,1098.701,596.766,1126.468,645.039C1154.296,693.416,1212.525,712.542,1268.298,710.518" fill="rgba(28, 83, 142, 0.4)" class="triangle-float2"></path><path d="M661.4144649508482 180.4333554249592L761.0736103732507 48.181202565044515 628.821457513336-51.47794285735796 529.1623120909336 80.77421000255673z" fill="rgba(28, 83, 142, 0.4)" class="triangle-float2"></path><path d="M536.404,186.897C577.081,184.705,605.842,152.301,626.751,117.34C648.428,81.096,667.879,38.025,647.594,0.983C626.769,-37.045,579.687,-50.18,536.404,-47.643C497.53,-45.364,466.231,-20.279,445.711,12.817C423.741,48.252,408.192,91.104,427.456,128.08C447.894,167.309,492.234,189.277,536.404,186.897" fill="rgba(28, 83, 142, 0.4)" class="triangle-float3"></path><path d="M356.904,488.678C384.806,488.514,409.751,470.317,421.725,445.115C432.312,422.832,421.805,398.7,409.924,377.079C397.394,354.276,382.9,328.24,356.904,327.152C329.728,326.015,308.835,348.533,295.596,372.294C282.771,395.311,278.465,422.575,290.745,445.887C303.864,470.792,328.755,488.844,356.904,488.678" fill="rgba(28, 83, 142, 0.4)" class="triangle-float1"></path><path d="M709.0180475409624 246.9643273706971L845.6070051327326 230.19331218860617 828.8359899506418 93.60435459683583 692.2470323588714 110.37536977892677z" fill="rgba(28, 83, 142, 0.4)" class="triangle-float3"></path><path d="M1293.7096961075365 247.24910013688293L1423.9063046841864 352.8858393932476 1449.356573493774 208.550192589049z" fill="rgba(28, 83, 142, 0.4)" class="triangle-float3"></path><path d="M922.6125174510546 98.72641347100632L827.748564623686 88.75581025480655 912.6419142348548 193.590366298375z" fill="rgba(28, 83, 142, 0.4)" class="triangle-float1"></path><path d="M895.1000593165807 303.0593509449591L797.0583656697582 442.7937780855247 945.4580337121434 458.3912117087998z" fill="rgba(28, 83, 142, 0.4)" class="triangle-float1"></path><path d="M1148.445,191.743C1176.507,191.022,1199.991,172.594,1213.829,148.171C1227.451,124.129,1232.194,93.915,1216.919,70.888C1202.758,49.54,1174.049,48.761,1148.445,49.603C1124.801,50.381,1100.922,55.771,1087.353,75.15C1071.525,97.756,1064.159,127.245,1076.967,151.689C1090.553,177.618,1119.182,192.495,1148.445,191.743" fill="rgba(28, 83, 142, 0.4)" class="triangle-float1"></path></g><defs><mask id="SvgjsMask2109"><rect width="1440" height="560" fill="#ffffff"></rect></mask><linearGradient x1="15.28%" y1="-39.29%" x2="84.72%" y2="139.29%" gradientUnits="userSpaceOnUse" id="SvgjsLinearGradient2110"><stop stop-color="rgba(8, 32, 91, 1)" offset="0.12"></stop><stop stop-color="rgba(158, 67, 0, 1)" offset="0.92"></stop></linearGradient><style>
                @keyframes float1 {
                    0%{transform: translate(0, 0)}
                    50%{transform: translate(-10px, 0)}
                    100%{transform: translate(0, 0)}
                }

                .triangle-float1 {
                    animation: float1 5s infinite;
                }

                @keyframes float2 {
                    0%{transform: translate(0, 0)}
                    50%{transform: translate(-5px, -5px)}
                    100%{transform: translate(0, 0)}
                }

                .triangle-float2 {
                    animation: float2 4s infinite;
                }

                @keyframes float3 {
                    0%{transform: translate(0, 0)}
                    50%{transform: translate(0, -10px)}
                    100%{transform: translate(0, 0)}
                }

                .triangle-float3 {
                    animation: float3 6s infinite;
                }
            </style></defs></svg>